<svg xmlns="http://www.w3.org/2000/svg" viewBox="0 0 46 46">
  <defs>
    <style>
      .cls-1 {
        fill: #fff;
      }
    </style>
  </defs>
  <g id="Group_2036" data-name="Group 2036" transform="translate(-1074 -1569)">
    <path id="Path_1154" data-name="Path 1154" class="cls-1" d="M23,0A23,23,0,1,1,0,23,23,23,0,0,1,23,0Z" transform="translate(1074 1569)"/>
    <g id="slack_1_" data-name="slack (1)" transform="translate(1085 1579.993)">
      <g id="Group_2035" data-name="Group 2035" transform="translate(0 0.007)">
        <path id="Path_1158" data-name="Path 1158" d="M23.9,12.879A2.138,2.138,0,0,0,21.2,11.506l-2.154.7c-.477-1.47-.986-3.033-1.463-4.5l2.154-.7a2.138,2.138,0,0,0-1.322-4.067l-2.154.7-.7-2.154A2.137,2.137,0,1,0,11.5,2.806l.7,2.154L7.7,6.423C7.274,5.114,7,4.269,7,4.269a2.138,2.138,0,0,0-4.067,1.32l.7,2.156L1.41,8.468a2.138,2.138,0,0,0,1.32,4.065l2.223-.723,1.463,4.5-2.223.723A2.138,2.138,0,0,0,5.513,21.1l2.225-.723L8.461,22.6a2.138,2.138,0,0,0,4.066-1.32L11.8,19.056l4.5-1.463.723,2.223a2.138,2.138,0,0,0,4.065-1.32c0-.009-.287-.882-.723-2.223l2.154-.7A2.139,2.139,0,0,0,23.9,12.879ZM10.483,14.991C10,13.521,9.5,11.957,9.02,10.49l4.5-1.463,1.463,4.5Z" transform="translate(0 -0.007)"/>
      </g>
    </g>
  </g>
</svg>
