<svg xmlns="http://www.w3.org/2000/svg" viewBox="0 0 46 46">
  <defs>
    <style>
      .cls-1 {
        fill: #fff;
      }
    </style>
  </defs>
  <g id="Group_2037" data-name="Group 2037" transform="translate(-983 -1569)">
    <path id="Path_1160" data-name="Path 1160" class="cls-1" d="M23,0A23,23,0,1,1,0,23,23,23,0,0,1,23,0Z" transform="translate(983 1569)"/>
    <g id="_25231" data-name="25231" transform="translate(994 1574.635)">
      <path id="Path_1126" data-name="Path 1126" d="M22.388,11.341a11.946,11.946,0,0,0-4.367-4.367A11.736,11.736,0,0,0,12,5.365,11.737,11.737,0,0,0,5.976,6.974a11.945,11.945,0,0,0-4.367,4.367A11.737,11.737,0,0,0,0,17.363a11.661,11.661,0,0,0,2.289,7.054A11.751,11.751,0,0,0,8.2,28.752a.7.7,0,0,0,.625-.109.611.611,0,0,0,.2-.469q0-.047-.008-.844t-.008-1.39L8.655,26a4.584,4.584,0,0,1-.867.055A6.607,6.607,0,0,1,6.7,25.948a2.426,2.426,0,0,1-1.047-.468,1.982,1.982,0,0,1-.687-.961l-.156-.36a3.9,3.9,0,0,0-.492-.8,1.885,1.885,0,0,0-.68-.594l-.109-.078a1.147,1.147,0,0,1-.2-.188.857.857,0,0,1-.141-.219q-.047-.11.078-.18a1.013,1.013,0,0,1,.453-.07l.312.047a2.281,2.281,0,0,1,.773.375,2.522,2.522,0,0,1,.758.812,2.754,2.754,0,0,0,.867.977,1.839,1.839,0,0,0,1.023.336,4.443,4.443,0,0,0,.891-.078,3.107,3.107,0,0,0,.7-.234,2.531,2.531,0,0,1,.765-1.609,10.7,10.7,0,0,1-1.6-.281,6.376,6.376,0,0,1-1.468-.61,4.206,4.206,0,0,1-1.258-1.047,5.03,5.03,0,0,1-.82-1.64,7.8,7.8,0,0,1-.32-2.343A4.557,4.557,0,0,1,5.577,13.52a4.2,4.2,0,0,1,.109-3.187,2.189,2.189,0,0,1,1.344.211,9.394,9.394,0,0,1,1.3.6q.414.25.664.422a11.283,11.283,0,0,1,6,0l.594-.375a8.408,8.408,0,0,1,1.437-.688,2.047,2.047,0,0,1,1.266-.172,4.159,4.159,0,0,1,.125,3.187,4.558,4.558,0,0,1,1.234,3.218,7.888,7.888,0,0,1-.32,2.351,4.835,4.835,0,0,1-.828,1.64,4.368,4.368,0,0,1-1.266,1.039,6.388,6.388,0,0,1-1.469.609,10.686,10.686,0,0,1-1.6.282,2.783,2.783,0,0,1,.812,2.218v3.3a.622.622,0,0,0,.2.469.679.679,0,0,0,.617.109,11.75,11.75,0,0,0,5.913-4.335A11.663,11.663,0,0,0,24,17.363,11.746,11.746,0,0,0,22.388,11.341Z"/>
    </g>
  </g>
</svg>
