<svg xmlns="http://www.w3.org/2000/svg" viewBox="0 0 46 46">
  <defs>
    <style>
      .cls-1 {
        fill: #fff;
      }

      .cls-2 {
        fill: #010002;
      }
    </style>
  </defs>
  <g id="Group_2038" data-name="Group 2038" transform="translate(-892 -1569)">
    <path id="Path_1159" data-name="Path 1159" class="cls-1" d="M23,0A23,23,0,1,1,0,23,23,23,0,0,1,23,0Z" transform="translate(892 1569)"/>
    <g id="twitter-logo-silhouette_1_" data-name="twitter-logo-silhouette (1)" transform="translate(902.998 1524.559)">
      <g id="Group_2034" data-name="Group 2034" transform="translate(0.001 57.441)">
        <path id="Path_1156" data-name="Path 1156" class="cls-2" d="M24,59.748a9.833,9.833,0,0,1-2.827.775A4.944,4.944,0,0,0,23.34,57.8,9.926,9.926,0,0,1,20.211,59a4.927,4.927,0,0,0-8.39,4.489A13.979,13.979,0,0,1,1.673,58.341,4.929,4.929,0,0,0,3.2,64.913,4.924,4.924,0,0,1,.967,64.3v.061a4.929,4.929,0,0,0,3.949,4.828,4.987,4.987,0,0,1-1.3.172,4.725,4.725,0,0,1-.927-.092,4.926,4.926,0,0,0,4.6,3.42,9.879,9.879,0,0,1-6.115,2.1A10.467,10.467,0,0,1,0,74.722a13.918,13.918,0,0,0,7.547,2.215A13.912,13.912,0,0,0,21.556,62.929l-.017-.637A9.832,9.832,0,0,0,24,59.748Z" transform="translate(-0.001 -57.441)"/>
      </g>
    </g>
  </g>
</svg>
