<svg xmlns="http://www.w3.org/2000/svg" id="api" viewBox="0 0 82.768 96">
    <defs>
        <style>
            .cls-1{fill:none;stroke:#444;stroke-linecap:round;stroke-linejoin:round;stroke-miterlimit:10;stroke-width:2px}.cls-2{fill:#c9f3ff}.cls-3{fill:#f46083}.cls-4{fill:#444}
        </style>
    </defs>
    <path id="Path_852" d="M10.395 91.532H66.7a2.79 2.79 0 0 0 2.595-2.595V4.095A2.79 2.79 0 0 0 66.7 1.5H10.4a2.6 2.6 0 0 0-2.6 2.595v84.843a2.79 2.79 0 0 0 2.595 2.594z" class="cls-2" data-name="Path 852" transform="translate(12.438 2.392)"/>
    <circle id="Ellipse_101" cx="5.968" cy="5.968" r="5.968" class="cls-3" data-name="Ellipse 101" transform="translate(51.632 65.124)"/>
    <g id="Group_1078" data-name="Group 1078" transform="translate(32.432 46.184)">
        <path id="Path_853" d="M27.462 41.224a8.562 8.562 0 1 1 8.562-8.562 8.472 8.472 0 0 1-8.562 8.562zm0-12.195a3.373 3.373 0 1 0 3.373 3.371 3.435 3.435 0 0 0-3.373-3.37z" class="cls-4" data-name="Path 853" transform="translate(-2.295 -7.754)"/>
        <path id="Path_854" d="M42.338 67.616h-9.081a2.451 2.451 0 0 1-2.595-2.595v-4.67a.254.254 0 0 0-.259-.259h-.259l-3.374 3.373a2.508 2.508 0 0 1-3.632 0l-6.227-6.227a2.508 2.508 0 0 1 0-3.632l3.114-3.114v-.259a.254.254 0 0 0-.259-.259h-4.67a2.451 2.451 0 0 1-2.596-2.596V38.3a2.451 2.451 0 0 1 2.595-2.6h4.67a.254.254 0 0 0 .259-.259v-.259l-3.113-3.112a2.508 2.508 0 0 1 0-3.632l6.227-6.227a2.508 2.508 0 0 1 3.632 0l3.114 3.114h.259a.254.254 0 0 0 .259-.259v-4.67A2.451 2.451 0 0 1 33 17.8h9.341a2.451 2.451 0 0 1 2.595 2.595v4.67a.254.254 0 0 0 .259.259h.259l3.114-3.114a2.508 2.508 0 0 1 3.632 0l6.227 6.227a2.508 2.508 0 0 1 0 3.632l-3.114 2.854v.259a.254.254 0 0 0 .259.259h4.67a2.451 2.451 0 0 1 2.595 2.595v9.081a2.451 2.451 0 0 1-2.595 2.595H55.57a.254.254 0 0 0-.259.259v.259l3.114 3.114a2.508 2.508 0 0 1 0 3.632L52.2 63.205a2.508 2.508 0 0 1-3.632 0l-3.114-3.114h-.259l-.259.259v4.67a2.6 2.6 0 0 1-2.598 2.596zm-6.486-5.189h3.892v-2.076a5.676 5.676 0 0 1 3.373-5.189 5.2 5.2 0 0 1 5.968 1.3l1.3 1.3 2.595-2.595-1.3-1.3a5.646 5.646 0 0 1-1.3-5.968 5.416 5.416 0 0 1 5.189-3.373h2.076v-3.894H55.57a5.411 5.411 0 0 1-3.892-9.341l1.3-1.3-2.597-2.591-1.3 1.3a5.646 5.646 0 0 1-5.968 1.3 5.416 5.416 0 0 1-3.373-5.189V22.73h-3.889v2.076a5.676 5.676 0 0 1-3.373 5.189 5.646 5.646 0 0 1-5.968-1.3l-1.3-1.3-2.595 2.595 1.3 1.3a5.646 5.646 0 0 1 1.3 5.968 5.416 5.416 0 0 1-5.189 3.373h-2.077v3.892h2.076a5.411 5.411 0 0 1 3.892 9.341l-1.3 1.3 2.595 2.595 1.3-1.3a5.646 5.646 0 0 1 5.968-1.3 5.416 5.416 0 0 1 3.373 5.189v2.076z" class="cls-4" data-name="Path 854" transform="translate(-12.5 -17.8)"/>
    </g>
    <path id="Path_855" d="M35.805 96H5.189A5.2 5.2 0 0 1 0 90.811V5.189A5.2 5.2 0 0 1 5.189 0h72.389a5.2 5.2 0 0 1 5.189 5.189v42.552a2.595 2.595 0 1 1-5.189 0V5.189H5.189v85.622h30.616a2.451 2.451 0 0 1 2.595 2.594A2.6 2.6 0 0 1 35.805 96z" class="cls-4" data-name="Path 855"/>
    <path id="Path_856" d="M80.173 10.889H2.595A2.451 2.451 0 0 1 0 8.295 2.451 2.451 0 0 1 2.595 5.7h77.578a2.451 2.451 0 0 1 2.595 2.595 2.6 2.6 0 0 1-2.595 2.594z" class="cls-4" data-name="Path 856" transform="translate(0 9.089)"/>
    <path id="Path_857" d="M6.273 9.246A3.435 3.435 0 0 1 2.9 5.873 3.435 3.435 0 0 1 6.273 2.5a3.435 3.435 0 0 1 3.373 3.373 3.435 3.435 0 0 1-3.373 3.373z" class="cls-4" data-name="Path 857" transform="translate(4.624 3.986)"/>
    <path id="Path_858" d="M9.273 9.246A3.435 3.435 0 0 1 5.9 5.873 3.435 3.435 0 0 1 9.273 2.5a3.435 3.435 0 0 1 3.373 3.373 3.435 3.435 0 0 1-3.373 3.373z" class="cls-4" data-name="Path 858" transform="translate(9.408 3.986)"/>
    <path id="Path_859" d="M12.273 9.246A3.435 3.435 0 0 1 8.9 5.873a3.373 3.373 0 0 1 6.746 0 3.435 3.435 0 0 1-3.373 3.373z" class="cls-4" data-name="Path 859" transform="translate(14.192 3.986)"/>
</svg>
