<svg xmlns="http://www.w3.org/2000/svg" id="contact" viewBox="0 0 83.934 96">
    <defs>
        <style>
            .cls-1{fill:#c9f3ff}.cls-2{fill:#f46083}.cls-3{fill:#444}
        </style>
    </defs>
    <path id="Path_846" d="M10.185 86.97l52.721-.262c2.361-1.311 7.344-12.328 7.344-13.639l-4.2-49.311C67.628 18.511 45.07-.637 42.448 1.724H9.923A2.821 2.821 0 0 0 7.3 4.347v80a2.86 2.86 0 0 0 2.885 2.623z" class="cls-1" data-name="Path 846" transform="translate(11.848 2.473)"/>
    <circle id="Ellipse_100" cx="6.033" cy="6.033" r="6.033" class="cls-2" data-name="Ellipse 100" transform="translate(38.82 83.148)"/>
    <g id="Group_1076" data-name="Group 1076">
        <path id="Path_847" d="M20.636 53.684H14.6A11.754 11.754 0 0 1 2.8 41.88V19.323A2.478 2.478 0 0 1 5.423 16.7h15.213a2.478 2.478 0 0 1 2.623 2.623v31.738a2.478 2.478 0 0 1-2.623 2.623zM8.308 21.946V41.88a6.494 6.494 0 0 0 6.557 6.557h3.41V21.946z" class="cls-3" data-name="Path 847" transform="translate(4.544 27.103)"/>
        <path id="Path_848" d="M29.956 53.684h-6.033a2.478 2.478 0 0 1-2.623-2.623V19.323a2.478 2.478 0 0 1 2.623-2.623h15.213a2.478 2.478 0 0 1 2.623 2.623V41.88a11.754 11.754 0 0 1-11.803 11.804zm-3.41-5.246h3.41a6.494 6.494 0 0 0 6.557-6.557V21.946h-9.967z" class="cls-3" data-name="Path 848" transform="translate(34.569 27.103)"/>
        <path id="Path_849" d="M60.066 96h-1.574a2.623 2.623 0 1 1 0-5.246h1.574a18.7 18.7 0 0 0 18.623-18.623V41.967a36.721 36.721 0 1 0-73.443 0V57.18a2.478 2.478 0 0 1-2.623 2.62A2.478 2.478 0 0 1 0 57.18V41.967a41.967 41.967 0 0 1 83.934 0v30.164A23.956 23.956 0 0 1 60.066 96z" class="cls-3" data-name="Path 849"/>
        <path id="Path_850" d="M26.2 39.846h-9.18a2.623 2.623 0 1 1 0-5.246h9.18a2.478 2.478 0 0 1 2.623 2.623 2.628 2.628 0 0 1-2.623 2.623z" class="cls-3" data-name="Path 850" transform="translate(23.37 56.154)"/>
    </g>
</svg>
