<svg xmlns="http://www.w3.org/2000/svg" id="doc" viewBox="0 0 82.768 96">
    <defs>
        <style>
            .cls-1{fill:#c9f3ff}.cls-2{fill:#f46083}.cls-3{fill:#444}
        </style>
    </defs>
    <path id="Path_860" d="M66.062 20.9v67.2a5.2 5.2 0 0 1-5.189 5.189H14.689A5.2 5.2 0 0 1 9.5 88.1V5.589A5.2 5.2 0 0 1 14.689.4H46.6" class="cls-1" data-name="Path 860" transform="translate(15.149 .638)"/>
    <path id="Path_861" d="M43.419 19.081c0 .519-.778 1.038-1.816 1.038H25.516c-1.038 0-1.816-.519-1.816-1.038V1.438C23.7.919 24.478.4 25.516.4" class="cls-2" data-name="Path 861" transform="translate(37.792 .638)"/>
    <path id="Path_862" d="M74.984 96h-67.2A7.645 7.645 0 0 1 0 88.216V7.784A7.645 7.645 0 0 1 7.784 0H62.27a1.56 1.56 0 0 1 1.038.259c.519 0 .778.259 1.038.778L81.989 19.2a2.355 2.355 0 0 1 .778 1.816v67.46A7.756 7.756 0 0 1 74.984 96zM7.784 5.189a2.451 2.451 0 0 0-2.595 2.595v80.432a2.451 2.451 0 0 0 2.595 2.595h67.2a2.451 2.451 0 0 0 2.595-2.595V23.351h-9.86c-4.151 0-7.784-3.892-7.784-8.043V5.189zm57.34 3.892v6.227a2.842 2.842 0 0 0 2.595 2.854h6.227z" class="cls-3" data-name="Path 862"/>
    <path id="Path_863" d="M37.511 12.689H6.895A2.451 2.451 0 0 1 4.3 10.095 2.451 2.451 0 0 1 6.895 7.5h30.616a2.451 2.451 0 0 1 2.595 2.595 2.6 2.6 0 0 1-2.595 2.594z" class="cls-3" data-name="Path 863" transform="translate(6.857 11.959)"/>
    <path id="Path_864" d="M58.268 18.689H6.895A2.451 2.451 0 0 1 4.3 16.095 2.451 2.451 0 0 1 6.895 13.5h51.373a2.451 2.451 0 0 1 2.595 2.595 2.6 2.6 0 0 1-2.595 2.594z" class="cls-3" data-name="Path 864" transform="translate(6.857 21.527)"/>
    <path id="Path_865" d="M16.754 24.689H6.895A2.451 2.451 0 0 1 4.3 22.095 2.451 2.451 0 0 1 6.895 19.5h9.859a2.451 2.451 0 0 1 2.595 2.595 2.6 2.6 0 0 1-2.595 2.594z" class="cls-3" data-name="Path 865" transform="translate(6.857 31.095)"/>
    <path id="Path_866" d="M44.235 24.689h-28.54a2.451 2.451 0 0 1-2.595-2.594 2.451 2.451 0 0 1 2.595-2.595h28.54a2.451 2.451 0 0 1 2.595 2.595 2.6 2.6 0 0 1-2.595 2.594z" class="cls-3" data-name="Path 866" transform="translate(20.889 31.095)"/>
    <path id="Path_867" d="M32.754 30.689h-9.859a2.451 2.451 0 0 1-2.595-2.594 2.451 2.451 0 0 1 2.595-2.595h9.859a2.451 2.451 0 0 1 2.595 2.595 2.6 2.6 0 0 1-2.595 2.594z" class="cls-3" data-name="Path 867" transform="translate(32.37 40.662)"/>
    <path id="Path_868" d="M35.435 30.689H6.895A2.451 2.451 0 0 1 4.3 28.095 2.451 2.451 0 0 1 6.895 25.5h28.54a2.451 2.451 0 0 1 2.595 2.595 2.6 2.6 0 0 1-2.595 2.594z" class="cls-3" data-name="Path 868" transform="translate(6.857 40.662)"/>
</svg>
