<svg xmlns="http://www.w3.org/2000/svg" id="documents" viewBox="0 0 13.92 16">
    <defs>
        <style>
            .cls-1{fill:#4f4f4f}
        </style>
    </defs>
    <path id="Path_828" d="M10.8 2.7H.6a.645.645 0 0 0-.6.6v12a.669.669 0 0 0 .6.7h10.2c.4 0 .6-.3.6-.7v-12c.1-.3-.2-.6-.6-.6zm-.6 12H1.3V4h8.9z" class="cls-1" data-name="Path 828"/>
    <path id="Path_829" d="M13.4 0H2.5a.669.669 0 0 0-.6.7.669.669 0 0 0 .6.7h10.2V14a.669.669 0 0 0 .6.7c.4 0 .6-.3.6-.7V.7a.545.545 0 0 0-.5-.7z" class="cls-1" data-name="Path 829"/>
    <path id="Path_830" d="M3.2 7.3h5.1c.4 0 .6-.3.6-.7a.576.576 0 0 0-.6-.6H3.2a.684.684 0 0 0-.7.7c0 .4.3.6.7.6z" class="cls-1" data-name="Path 830"/>
    <path id="Path_831" d="M3.2 10h5.1c.4 0 .6-.3.6-.7a.669.669 0 0 0-.6-.7H3.2a.842.842 0 0 0-.7.7.684.684 0 0 0 .7.7z" class="cls-1" data-name="Path 831"/>
    <path id="Path_832" d="M3.2 12.7h2.5c.4 0 .6-.3.6-.7a.669.669 0 0 0-.6-.7H3.2c-.4 0-.6.3-.6.7s.2.7.6.7z" class="cls-1" data-name="Path 832"/>
</svg>
