<svg xmlns="http://www.w3.org/2000/svg" viewBox="0 0 186.36 55.667">
    <defs>
        <style>
            .cls-1{fill:#fff}
        </style>
    </defs>
    <g id="fandogh_logo" data-name="fandogh logo" transform="translate(-44.749 -4.005)">
        <path id="Path_1" d="M47.163 11.134a5.463 5.463 0 0 0-.47-2.214 7.848 7.848 0 0 0 1.156-.594 7.45 7.45 0 0 0 3.5-6.741 1.49 1.49 0 0 0-2.98 0 4.545 4.545 0 0 1-2.019 4.167 5.664 5.664 0 0 1-1.743.738 5.532 5.532 0 0 0-3.007-.882 5.589 5.589 0 0 0-2.755.729C31.665-.26 24.485-.377 19.635.748a24.582 24.582 0 0 0-8.075 3.546 5.6 5.6 0 0 0-1.129.828 5.5 5.5 0 0 0-.993 6.741A34.064 34.064 0 0 0 2.646 22.5 34.7 34.7 0 0 0 .271 33.417a36.255 36.255 0 0 0 .858 10.3A5.456 5.456 0 0 0 0 47.061a5.556 5.556 0 0 0 8.445 4.725 35.817 35.817 0 0 0 8.544.99c.686 0 1.4-.018 2.131-.063a35.037 35.037 0 0 0 10.955-2.376 33.988 33.988 0 0 0 10.685-6.786 5.581 5.581 0 0 0 2.746.729 5.523 5.523 0 0 0 4.245-1.971l.018.009a23.766 23.766 0 0 0 4.389-9.171c1.129-4.86 1.012-12.078-5.735-19.286a5.362 5.362 0 0 0 .74-2.727zm-5.554-2.565a2.565 2.565 0 1 1-2.574 2.565 2.574 2.574 0 0 1 2.574-2.565zM14.27 6.562a2.565 2.565 0 1 1-2.57 2.565 2.522 2.522 0 0 1 .723-1.773c.108-.081.343-.27.713-.522a2.387 2.387 0 0 1 1.134-.27zM5.554 49.625a2.565 2.565 0 1 1 2.574-2.565 2.574 2.574 0 0 1-2.574 2.565zm23.491-2.07a32.115 32.115 0 0 1-9.98 2.187 35.037 35.037 0 0 1-8.4-.522 5.447 5.447 0 0 0 .443-2.169 5.551 5.551 0 0 0-7.343-5.238 34.463 34.463 0 0 1-.524-8.235 31.761 31.761 0 0 1 2.177-9.99 30.848 30.848 0 0 1 6.151-9.639 5.547 5.547 0 0 0 5.527-.072 40.457 40.457 0 0 1 8.372 4.743 40.22 40.22 0 0 1 7.488 7.08A36.736 36.736 0 0 1 38.8 35.82a5.482 5.482 0 0 0-.84 2.925 5.41 5.41 0 0 0 .7 2.691 30.824 30.824 0 0 1-9.614 6.12zm14.469-6.237a2.565 2.565 0 1 1 2.574-2.565 2.574 2.574 0 0 1-2.574 2.566zm5.771-8.937a20.237 20.237 0 0 1-1.1 3.393 5.559 5.559 0 0 0-4.669-2.547 5.659 5.659 0 0 0-2.339.513 39.575 39.575 0 0 0-5.952-9.954 43.032 43.032 0 0 0-8.083-7.614 43.6 43.6 0 0 0-7.894-4.59 5.46 5.46 0 0 0 .578-2.448 5.524 5.524 0 0 0-2.426-4.57 20.426 20.426 0 0 1 2.908-.909 16.773 16.773 0 0 1 8.047.045 19.877 19.877 0 0 1 8.39 4.752 5.46 5.46 0 0 0-.7 2.691 5.552 5.552 0 0 0 5.555 5.534 5.617 5.617 0 0 0 2.709-.7c4.642 4.975 6.313 10.492 4.976 16.405z" class="cls-1" data-name="Path 1" transform="translate(178.414 3.905)"/>
        <path id="Path_2" d="M980.954 257.8c-2.664 0-4.254 1.629-4.254 4.356a3.85 3.85 0 0 0 1.083 3.006 4.781 4.781 0 0 0 3.224.918h2.818a1.489 1.489 0 0 0 1.49-1.485v-1.557a5.917 5.917 0 0 0-1.048-3.87 3.973 3.973 0 0 0-3.313-1.368zm1.391 5.319h-1.328a2.665 2.665 0 0 1-1.237-.162 2.032 2.032 0 0 1-.1-.792 1.739 1.739 0 0 1 .28-1.134 1.548 1.548 0 0 1 .993-.261c.795 0 .957.207 1.011.27a3.275 3.275 0 0 1 .379 1.989z" class="cls-1" data-name="Path 2" transform="translate(-910.014 -227.979)"/>
        <path id="Path_3" d="M760.181 174.5a10.626 10.626 0 0 0-8.517 3.78 13.528 13.528 0 0 0-2.818 8.64c0 3.852.7 6.372 2.294 8.172 1.815 2.052 4.642 3.006 8.914 3.006h.84a4.275 4.275 0 0 1-1.066 1.638 6.466 6.466 0 0 1-4.471 1.332h-5.645c-2.24 0-3.748-.477-4.6-1.449-.759-.855-1.12-2.25-1.12-4.257v-10a1.489 1.489 0 0 0-1.49-1.485h-7.212a1.489 1.489 0 0 0-1.49 1.485v10.314c0 9.972 5.735 16.172 14.974 16.172h6.9a15.949 15.949 0 0 0 6.512-1.323 14.593 14.593 0 0 0 4.94-3.582 16.717 16.717 0 0 0 4.146-11.268v-8.125c0-4.347-1.093-7.695-3.251-9.963a10.507 10.507 0 0 0-7.84-3.087zm8.1 21.167a13.789 13.789 0 0 1-3.378 9.279 12.063 12.063 0 0 1-9.239 3.924h-6.9a11.529 11.529 0 0 1-8.815-3.456c-2.077-2.286-3.179-5.652-3.179-9.747v-8.829h4.236v8.514c0 2.79.587 4.77 1.861 6.21 1.454 1.656 3.694 2.457 6.846 2.457h5.645a9.254 9.254 0 0 0 6.5-2.124 7.961 7.961 0 0 0 2.384-5.13 1.486 1.486 0 0 0-1.481-1.647h-2.7c-4.913 0-6.241-1.5-6.683-2-1.075-1.215-1.544-3.123-1.544-6.2a10.56 10.56 0 0 1 2.141-6.75 7.665 7.665 0 0 1 6.223-2.7 7.52 7.52 0 0 1 5.672 2.151c1.617 1.7 2.438 4.365 2.438 7.92v8.127z" class="cls-1" data-name="Path 3" transform="translate(-689.052 -152.176)"/>
        <path id="Path_4" d="M1233.466 113.635c-1.951-1.935-4.66-2.871-8.3-2.871a10.54 10.54 0 0 0-8.165 3.51 10.727 10.727 0 0 0-2.727 7.038 14.122 14.122 0 0 0 1.011 6.039c-.416-.018-.876-.018-1.409-.018h-3.45c-.74 0-2.276 0-2.276-1.638v-5.94a1.489 1.489 0 0 0-1.49-1.485h-7.216a1.489 1.489 0 0 0-1.491 1.485v5.94a1.29 1.29 0 0 1-1.644 1.638h-4.389c-1.625 0-1.978-.279-2.673-2.151l-5.645-15.615a1.485 1.485 0 0 0-.8-.855 1.518 1.518 0 0 0-1.174-.018l-6.9 2.808a1.483 1.483 0 0 0-.831 1.89c3.947 10.674 4.616 12.807 4.616 13.545 0 .108-.019.126-.046.144a2.115 2.115 0 0 1-1.291.252h-11.606a1.471 1.471 0 0 0-1.075.459 1.489 1.489 0 0 0-.416 1.089l.316 7.812a1.49 1.49 0 0 0 1.491 1.422h12.228a9.493 9.493 0 0 0 6.909-2.565 8.519 8.519 0 0 0 2.61 1.782 10.627 10.627 0 0 0 4.281.783h4.389a8.556 8.556 0 0 0 6.594-2.565 9.6 9.6 0 0 0 7.2 2.565h14.108c4.064 0 7.207-1.035 9.338-3.069 2.078-1.98 3.125-4.806 3.125-8.415v-3.123c.014-4.491-1.034-7.722-3.202-9.873zm.235 13c0 5.733-3.107 8.514-9.483 8.514h-14.107c-2.466 0-4.435-.468-5.97-2.772a1.494 1.494 0 0 0-2.475 0 5.6 5.6 0 0 1-5.347 2.772h-4.389c-2.664 0-4.353-.828-5.663-2.772a1.491 1.491 0 0 0-2.5.045c-1.156 1.845-3 2.736-5.636 2.736h-10.8l-.2-4.842h10.052c3.179 0 4.308-1.737 4.308-3.357 0-1.143-.217-2.151-4.3-13.23l4.127-1.683 5.121 14.166c0 .009 0 .009.009.018.967 2.592 2.167 4.095 5.473 4.095h4.389c3.026 0 4.625-1.593 4.625-4.608v-4.455h4.236v4.455c0 2.844 2.014 4.608 5.256 4.608h3.45a11.471 11.471 0 0 1 5.139.846 1.483 1.483 0 0 0 1.273-2.664c-2.33-1.395-3.044-3.069-3.044-7.164a7.848 7.848 0 0 1 1.978-5.067 7.665 7.665 0 0 1 5.943-2.511c2.809 0 4.841.657 6.2 2.007 1.553 1.539 2.349 4.158 2.349 7.758v3.1z" class="cls-1" data-name="Path 4" transform="translate(-1080.474 -92.26)"/>
        <path id="Path_5" d="M1798.772 212c-2.737 0-4.372 1.584-4.372 4.239a3.978 3.978 0 0 0 1.373 3.312 5.953 5.953 0 0 0 3.884 1.044h1.572a1.489 1.489 0 0 0 1.49-1.485v-2.81a4.74 4.74 0 0 0-.921-3.213 3.886 3.886 0 0 0-3.026-1.087zm.948 5.625h-.081a3.283 3.283 0 0 1-2-.378c-.063-.054-.271-.225-.271-1.008a1.535 1.535 0 0 1 .262-.99 1.738 1.738 0 0 1 1.138-.279 1.857 1.857 0 0 1 .795.1 2.8 2.8 0 0 1 .163 1.233v1.323z" class="cls-1" data-name="Path 5" transform="translate(-1653.862 -186.368)"/>
        <path id="Path_6" d="M930.228 42.316a5.521 5.521 0 0 1 8.074 0 10.395 10.395 0 1 0-8.074 0zm8.083-8.055a2.538 2.538 0 1 1-2.547 2.538 2.545 2.545 0 0 1 2.547-2.538zm-8.083 0a2.538 2.538 0 1 1-2.548 2.539 2.545 2.545 0 0 1 2.548-2.539z" class="cls-1" data-name="Path 6" transform="translate(-862.71 -21.864)"/>
        <path id="Path_7" d="M1452.828 42.316a5.508 5.508 0 1 0-5.528-5.508 5.523 5.523 0 0 0 5.528 5.508zm0-8.055a2.538 2.538 0 1 1-2.547 2.538 2.545 2.545 0 0 1 2.547-2.538z" class="cls-1" data-name="Path 7" transform="translate(-1338.111 -21.931)"/>
        <path id="Path_8" d="M1784.627 11.025a5.512 5.512 0 1 0-5.527-5.517 5.523 5.523 0 0 0 5.527 5.517zm0-8.055a2.538 2.538 0 1 1-2.546 2.538 2.545 2.545 0 0 1 2.546-2.538z" class="cls-1" data-name="Path 8" transform="translate(-1639.944 6.552)"/>
    </g>
</svg>
