<svg xmlns="http://www.w3.org/2000/svg" viewBox="0 0 82 24.495">
    <defs>
        <style>
            .cls-1{fill:#00b1d7}
        </style>
    </defs>
    <g id="fandogh_logo" data-name="fandogh logo" transform="translate(-44.749 -4.004)">
        <path id="Path_1" d="M20.752 4.955a2.4 2.4 0 0 0-.207-.974 3.453 3.453 0 0 0 .509-.261A3.278 3.278 0 0 0 22.6.753a.656.656 0 0 0-1.311 0 2 2 0 0 1-.89 1.833 2.492 2.492 0 0 1-.767.325 2.434 2.434 0 0 0-1.332-.388 2.459 2.459 0 0 0-1.212.321A9.032 9.032 0 0 0 8.639.385a10.816 10.816 0 0 0-3.553 1.56 2.462 2.462 0 0 0-.5.364 2.42 2.42 0 0 0-.437 2.966 14.989 14.989 0 0 0-2.985 4.681 15.266 15.266 0 0 0-1.045 4.8A15.952 15.952 0 0 0 .5 19.294a2.4 2.4 0 0 0-.5 1.469 2.445 2.445 0 0 0 3.716 2.079 15.76 15.76 0 0 0 3.759.436c.3 0 .616-.008.938-.028a15.417 15.417 0 0 0 4.82-1.045 14.955 14.955 0 0 0 4.7-2.986 2.456 2.456 0 0 0 1.208.321 2.43 2.43 0 0 0 1.868-.867h.008a10.457 10.457 0 0 0 1.931-4.035 8.987 8.987 0 0 0-2.523-8.486 2.359 2.359 0 0 0 .327-1.197zm-2.444-1.129a1.129 1.129 0 1 1-1.133 1.129 1.133 1.133 0 0 1 1.133-1.129zM6.279 2.943a1.129 1.129 0 1 1-1.133 1.129 1.11 1.11 0 0 1 .318-.78c.048-.036.151-.119.314-.23a1.05 1.05 0 0 1 .501-.119zM2.444 21.892a1.129 1.129 0 1 1 1.133-1.129 1.133 1.133 0 0 1-1.133 1.129zm10.336-.911a14.131 14.131 0 0 1-4.391.962 15.417 15.417 0 0 1-3.7-.23 2.4 2.4 0 0 0 .195-.954 2.443 2.443 0 0 0-3.231-2.3 15.164 15.164 0 0 1-.23-3.623 13.975 13.975 0 0 1 .958-4.4 13.573 13.573 0 0 1 2.71-4.242 2.441 2.441 0 0 0 2.432-.032 17.8 17.8 0 0 1 3.684 2.088 17.7 17.7 0 0 1 3.293 3.112 16.164 16.164 0 0 1 2.571 4.455A2.412 2.412 0 0 0 16.7 17.1a2.38 2.38 0 0 0 .31 1.184 13.563 13.563 0 0 1-4.23 2.697zm6.366-2.744a1.129 1.129 0 1 1 1.133-1.129 1.133 1.133 0 0 1-1.132 1.129zm2.54-3.937a8.9 8.9 0 0 1-.486 1.5 2.446 2.446 0 0 0-2.055-1.121 2.49 2.49 0 0 0-1.029.226 17.413 17.413 0 0 0-2.619-4.38 18.934 18.934 0 0 0-3.557-3.35 19.183 19.183 0 0 0-3.473-2.02 2.4 2.4 0 0 0 .254-1.077 2.431 2.431 0 0 0-1.063-2.014 8.987 8.987 0 0 1 1.28-.4 7.38 7.38 0 0 1 3.541.02 8.746 8.746 0 0 1 3.691 2.091 2.4 2.4 0 0 0-.31 1.184 2.443 2.443 0 0 0 2.44 2.435 2.472 2.472 0 0 0 1.2-.309 7.679 7.679 0 0 1 2.186 7.215z" class="cls-1" data-name="Path 1" transform="translate(103.562 3.905)"/>
        <path id="Path_2" d="M978.572 257.8a1.741 1.741 0 0 0-1.872 1.917 1.694 1.694 0 0 0 .477 1.323 2.1 2.1 0 0 0 1.419.4h1.24a.655.655 0 0 0 .656-.653v-.687a2.6 2.6 0 0 0-.461-1.7 1.748 1.748 0 0 0-1.459-.6zm.612 2.34h-.584a1.173 1.173 0 0 1-.544-.071.9.9 0 0 1-.044-.348.765.765 0 0 1 .123-.5.681.681 0 0 1 .437-.115c.35 0 .421.091.445.119a1.441 1.441 0 0 1 .167.875z" class="cls-1" data-name="Path 2" transform="translate(-922.299 -242.436)"/>
        <path id="Path_3" d="M745.408 174.5a4.676 4.676 0 0 0-3.747 1.663 5.952 5.952 0 0 0-1.24 3.8 5.151 5.151 0 0 0 1.009 3.6c.8.9 2.043 1.323 3.922 1.323h.37a1.881 1.881 0 0 1-.469.721 2.845 2.845 0 0 1-1.967.586H740.8a2.584 2.584 0 0 1-2.023-.638 2.788 2.788 0 0 1-.493-1.873v-4.4a.655.655 0 0 0-.656-.653h-3.175a.655.655 0 0 0-.656.653v4.538c0 4.388 2.523 7.116 6.589 7.116h3.036a7.018 7.018 0 0 0 2.865-.582 6.422 6.422 0 0 0 2.174-1.576 7.356 7.356 0 0 0 1.824-4.958v-3.576a6.147 6.147 0 0 0-1.431-4.384 4.623 4.623 0 0 0-3.446-1.36zm3.565 9.314a6.068 6.068 0 0 1-1.486 4.083 5.308 5.308 0 0 1-4.065 1.727h-3.036a5.073 5.073 0 0 1-3.879-1.521 6.253 6.253 0 0 1-1.4-4.289v-3.885h1.864v3.746a3.926 3.926 0 0 0 .819 2.732 3.777 3.777 0 0 0 3.012 1.081h2.484a4.072 4.072 0 0 0 2.861-.935 3.5 3.5 0 0 0 1.053-2.253.654.654 0 0 0-.652-.725h-1.188c-2.162 0-2.746-.661-2.941-.879a4.01 4.01 0 0 1-.68-2.728 4.647 4.647 0 0 1 .942-2.97 3.373 3.373 0 0 1 2.738-1.188 3.309 3.309 0 0 1 2.5.946 4.928 4.928 0 0 1 1.073 3.485v3.576z" class="cls-1" data-name="Path 3" transform="translate(-689.052 -162.435)"/>
        <path id="Path_4" d="M1194.613 110.807a4.919 4.919 0 0 0-3.652-1.263 4.638 4.638 0 0 0-3.592 1.544 4.72 4.72 0 0 0-1.2 3.1 6.213 6.213 0 0 0 .445 2.657c-.183-.008-.385-.008-.62-.008h-1.518c-.326 0-1 0-1-.721V113.5a.655.655 0 0 0-.656-.653h-3.175a.655.655 0 0 0-.656.653v2.614a.567.567 0 0 1-.723.721h-1.931c-.715 0-.87-.123-1.176-.946l-2.484-6.871a.653.653 0 0 0-.35-.376.668.668 0 0 0-.517-.008l-3.036 1.235a.652.652 0 0 0-.366.832c1.736 4.7 2.031 5.635 2.031 5.96 0 .048-.008.055-.02.063a.931.931 0 0 1-.568.111h-5.107a.647.647 0 0 0-.473.2.655.655 0 0 0-.183.479l.139 3.437a.655.655 0 0 0 .656.626h5.38a4.177 4.177 0 0 0 3.04-1.129 3.748 3.748 0 0 0 1.149.784 4.676 4.676 0 0 0 1.884.345h1.931a3.765 3.765 0 0 0 2.9-1.129 4.226 4.226 0 0 0 3.167 1.129h6.208a5.755 5.755 0 0 0 4.109-1.35 4.887 4.887 0 0 0 1.375-3.7v-1.374a5.823 5.823 0 0 0-1.411-4.346zm.1 5.718c0 2.523-1.367 3.746-4.173 3.746h-6.207a2.765 2.765 0 0 1-2.627-1.22.657.657 0 0 0-1.089 0 2.462 2.462 0 0 1-2.353 1.22h-1.931a2.679 2.679 0 0 1-2.492-1.22.656.656 0 0 0-1.1.02 2.677 2.677 0 0 1-2.48 1.2h-4.753l-.087-2.13h4.423c1.4 0 1.9-.764 1.9-1.477 0-.5-.1-.946-1.891-5.821l1.816-.741 2.253 6.233v.008a2.256 2.256 0 0 0 2.408 1.8h1.931a1.816 1.816 0 0 0 2.035-2.027v-1.96h1.864v1.96c0 1.251.886 2.027 2.313 2.027h1.518a5.048 5.048 0 0 1 2.261.372.652.652 0 0 0 .56-1.172c-1.025-.614-1.339-1.35-1.339-3.152a3.453 3.453 0 0 1 .87-2.229 3.373 3.373 0 0 1 2.615-1.1 3.692 3.692 0 0 1 2.726.883 4.71 4.71 0 0 1 1.033 3.413v1.366z" class="cls-1" data-name="Path 4" transform="translate(-1102.236 -99.159)"/>
        <path id="Path_5" d="M1796.323 212a1.922 1.922 0 0 0-1.32 3.322 2.619 2.619 0 0 0 1.709.459h.692a.655.655 0 0 0 .656-.653v-1.236a2.086 2.086 0 0 0-.405-1.414 1.71 1.71 0 0 0-1.332-.478zm.417 2.475h-.036a1.445 1.445 0 0 1-.879-.166c-.028-.024-.119-.1-.119-.444a.675.675 0 0 1 .115-.436.765.765 0 0 1 .5-.123.817.817 0 0 1 .35.044 1.231 1.231 0 0 1 .072.543v.582z" class="cls-1" data-name="Path 5" transform="translate(-1707.503 -198.479)"/>
        <path id="Path_6" d="M927.132 36.147a2.429 2.429 0 0 1 3.553 0 4.574 4.574 0 1 0-3.553 0zm3.557-3.544a1.117 1.117 0 1 1-1.121 1.117 1.12 1.12 0 0 1 1.121-1.12zm-3.557 0a1.117 1.117 0 1 1-1.121 1.117 1.12 1.12 0 0 1 1.121-1.12z" class="cls-1" data-name="Path 6" transform="translate(-872.365 -24.905)"/>
        <path id="Path_7" d="M1449.732 36.147a2.424 2.424 0 1 0-2.432-2.423 2.43 2.43 0 0 0 2.432 2.423zm0-3.544a1.117 1.117 0 1 1-1.121 1.117 1.12 1.12 0 0 1 1.121-1.12z" class="cls-1" data-name="Path 7" transform="translate(-1374.197 -24.935)"/>
        <path id="Path_8" d="M1781.532 4.851a2.425 2.425 0 1 0-2.432-2.427 2.43 2.43 0 0 0 2.432 2.427zm0-3.544a1.117 1.117 0 1 1-1.12 1.117 1.12 1.12 0 0 1 1.12-1.117z" class="cls-1" data-name="Path 8" transform="translate(-1692.812 5.126)"/>
    </g>
</svg>
