<svg xmlns="http://www.w3.org/2000/svg" viewBox="0 0 512 512">
  <defs>
    <style>
      .cls-1 {
        fill: #26c6ec;
      }
    </style>
  </defs>
  <path id="Path_621" data-name="Path 621" class="cls-1" d="M458.254,107.346a53.121,53.121,0,0,0-4.563-21.519,76.244,76.244,0,0,0,11.233-5.773c15.533-9.622,34.049-28.867,34.049-65.52a14.48,14.48,0,0,0-28.959,0c0,18.72-6.406,32.016-19.657,40.5a55.026,55.026,0,0,1-16.937,7.173A53.738,53.738,0,0,0,404.2,53.636a54.29,54.29,0,0,0-26.765,7.086C307.667-3.4,237.9-4.536,190.778,6.4c-36.067,8.31-63.973,24.668-78.452,34.466a54.372,54.372,0,0,0-10.969,8.048h0a53.475,53.475,0,0,0-9.653,65.52,331.117,331.117,0,0,0-65.991,103.4A337.344,337.344,0,0,0,2.633,323.938C0,370.3,6.845,407.041,10.969,424.1A53.043,53.043,0,0,0,0,456.552a53.98,53.98,0,0,0,82.05,45.925C95.214,505.8,125.4,512.1,165.066,512.1c6.669,0,13.6-.175,20.71-.612a340.333,340.333,0,0,0,106.446-23.094,330.222,330.222,0,0,0,103.814-65.957,54.209,54.209,0,0,0,26.677,7.086,53.659,53.659,0,0,0,41.245-19.157l.176.087c1.229-1.487,30.451-36.565,42.649-89.139,10.969-47.237,9.828-117.393-55.724-187.462A52.133,52.133,0,0,0,458.254,107.346ZM404.285,82.415a24.931,24.931,0,1,1-25.01,24.931A25.016,25.016,0,0,1,404.285,82.415ZM138.652,62.908a24.931,24.931,0,1,1-25.01,24.931,24.522,24.522,0,0,1,7.02-17.233c1.053-.787,3.335-2.624,6.933-5.074A23.183,23.183,0,0,1,138.652,62.908ZM53.969,481.483a24.931,24.931,0,1,1,25.01-24.931A25.016,25.016,0,0,1,53.969,481.483Zm228.249-20.12A311.943,311.943,0,0,1,185.25,482.62a340.309,340.309,0,0,1-81.612-5.074,52.962,52.962,0,0,0,4.3-21.082,53.936,53.936,0,0,0-71.344-50.911,335.1,335.1,0,0,1-5.09-80.041,308.814,308.814,0,0,1,21.149-97.1,299.856,299.856,0,0,1,59.761-93.687,53.884,53.884,0,0,0,53.706-.7c16.937,6.736,48.616,22.132,81.348,46.1a390.855,390.855,0,0,1,72.748,68.757,357.1,357.1,0,0,1,56.777,98.411,53.294,53.294,0,0,0-8.161,28.43,52.6,52.6,0,0,0,6.845,26.155A299.483,299.483,0,0,1,282.218,461.364ZM422.8,400.742a24.931,24.931,0,1,1,25.01-24.931A25.016,25.016,0,0,1,422.8,400.742Zm56.075-86.864a196.76,196.76,0,0,1-10.706,32.979A54.009,54.009,0,0,0,422.8,322.1a54.966,54.966,0,0,0-22.728,4.986,384.69,384.69,0,0,0-57.83-96.749,418.177,418.177,0,0,0-78.54-74.005A423.563,423.563,0,0,0,187,111.72a53.088,53.088,0,0,0,5.616-23.794A53.7,53.7,0,0,0,169.1,43.488a198.41,198.41,0,0,1,28.257-8.835c26.677-6.211,53-6.036,78.189.437,28.52,7.348,55.9,22.831,81.524,46.188a53.089,53.089,0,0,0-6.845,26.155,53.957,53.957,0,0,0,53.969,53.8,54.563,54.563,0,0,0,26.326-6.823C475.629,202.783,491.864,256.406,478.876,313.878Z" transform="translate(0 -0.1)"/>
</svg>
