<svg xmlns="http://www.w3.org/2000/svg" viewBox="0 0 224.803 63.998">
    <defs>
        <style>
            .cls-1{fill:#26c6ec}
        </style>
    </defs>
    <g id="fandogh_logo" data-name="fandogh logo" transform="translate(-44.75)">
        <path id="Path_1" d="M56.892 13.41a6.591 6.591 0 0 0-.567-2.671 9.467 9.467 0 0 0 1.395-.717 8.987 8.987 0 0 0 4.227-8.131 1.8 1.8 0 0 0-3.6 0 5.482 5.482 0 0 1-2.44 5.026 6.833 6.833 0 0 1-2.1.89 6.673 6.673 0 0 0-3.628-1.064 6.742 6.742 0 0 0-3.323.879C38.2-.334 29.536-.475 23.685.882a29.653 29.653 0 0 0-9.74 4.277 6.75 6.75 0 0 0-1.362 1 6.635 6.635 0 0 0-1.2 8.131 41.092 41.092 0 0 0-8.191 12.831A41.853 41.853 0 0 0 .327 40.29a43.734 43.734 0 0 0 1.035 12.43A6.581 6.581 0 0 0 0 56.748a6.7 6.7 0 0 0 10.187 5.7 43.206 43.206 0 0 0 10.306 1.194 42.1 42.1 0 0 0 2.571-.076A42.265 42.265 0 0 0 36.279 60.7a41 41 0 0 0 12.888-8.186 6.732 6.732 0 0 0 3.312.879 6.663 6.663 0 0 0 5.121-2.377l.022.011a28.669 28.669 0 0 0 5.295-11.063C64.279 34.1 64.137 25.4 56 16.7a6.468 6.468 0 0 0 .892-3.29zm-6.7-3.094a3.094 3.094 0 1 1-3.105 3.094 3.105 3.105 0 0 1 3.105-3.094zM17.214 7.895a3.094 3.094 0 1 1-3.1 3.094 3.043 3.043 0 0 1 .866-2.139c.131-.1.414-.326.861-.63a2.879 2.879 0 0 1 1.373-.325zM6.7 59.842a3.094 3.094 0 1 1 3.1-3.094 3.105 3.105 0 0 1-3.1 3.094zm28.337-2.5A38.74 38.74 0 0 1 23 59.983a42.264 42.264 0 0 1-10.132-.63 6.571 6.571 0 0 0 .534-2.616 6.7 6.7 0 0 0-8.857-6.318 41.573 41.573 0 0 1-.632-9.934 38.314 38.314 0 0 1 2.624-12.05 37.212 37.212 0 0 1 7.419-11.627 6.692 6.692 0 0 0 6.668-.087 48.8 48.8 0 0 1 10.1 5.721 48.517 48.517 0 0 1 9.032 8.533A44.315 44.315 0 0 1 46.8 43.189a6.612 6.612 0 0 0-1.013 3.528 6.526 6.526 0 0 0 .85 3.246 37.183 37.183 0 0 1-11.6 7.382zm17.453-7.523a3.094 3.094 0 1 1 3.1-3.094 3.105 3.105 0 0 1-3.099 3.097zm6.962-10.78a24.413 24.413 0 0 1-1.329 4.093 6.706 6.706 0 0 0-5.633-3.072 6.826 6.826 0 0 0-2.822.619 47.739 47.739 0 0 0-7.18-12.007 51.909 51.909 0 0 0-9.751-9.184 52.59 52.59 0 0 0-9.522-5.537 6.587 6.587 0 0 0 .7-2.953 6.664 6.664 0 0 0-2.92-5.515 24.639 24.639 0 0 1 3.508-1.1 20.233 20.233 0 0 1 9.707.054 23.978 23.978 0 0 1 10.121 5.732 6.587 6.587 0 0 0-.85 3.246 6.7 6.7 0 0 0 6.7 6.677 6.776 6.776 0 0 0 3.268-.847c5.6 6.009 7.616 12.664 6.004 19.797z" class="cls-1" data-name="Path 1" transform="translate(205.988 -.089)"/>
        <path id="Path_2" d="M981.831 257.8c-3.214 0-5.131 1.965-5.131 5.254a4.645 4.645 0 0 0 1.307 3.626 5.767 5.767 0 0 0 3.89 1.107h3.4a1.8 1.8 0 0 0 1.8-1.791v-1.878a7.137 7.137 0 0 0-1.264-4.668 4.793 4.793 0 0 0-4.002-1.65zm1.678 6.416h-1.6a3.212 3.212 0 0 1-1.492-.2 2.447 2.447 0 0 1-.12-.955 2.1 2.1 0 0 1 .338-1.368 1.868 1.868 0 0 1 1.2-.315c.959 0 1.155.25 1.22.326a3.949 3.949 0 0 1 .458 2.4z" class="cls-1" data-name="Path 2" transform="translate(-905.488 -229.812)"/>
        <path id="Path_3" d="M765.624 174.5a12.818 12.818 0 0 0-10.274 4.56 16.319 16.319 0 0 0-3.4 10.422c0 4.646.85 7.686 2.767 9.858 2.19 2.475 5.6 3.626 10.753 3.626h1.013a5.155 5.155 0 0 1-1.286 1.976c-1.155 1.064-2.974 1.607-5.393 1.607H753c-2.7 0-4.521-.575-5.545-1.748-.915-1.031-1.351-2.714-1.351-5.135V187.6a1.8 1.8 0 0 0-1.8-1.791h-8.7a1.8 1.8 0 0 0-1.8 1.791v12.441c0 12.029 6.918 19.509 18.063 19.509h8.323a19.241 19.241 0 0 0 7.855-1.6 17.606 17.606 0 0 0 5.955-4.313 20.167 20.167 0 0 0 5-13.592v-9.8c0-5.244-1.318-9.282-3.922-12.018a12.674 12.674 0 0 0-9.454-3.727zm9.773 25.534a16.634 16.634 0 0 1-4.075 11.193 14.552 14.552 0 0 1-11.145 4.733h-8.324c-4.467 0-8.149-1.444-10.633-4.169-2.506-2.758-3.835-6.818-3.835-11.757v-10.65h5.11v10.27c0 3.365.708 5.754 2.244 7.491 1.754 2 4.456 2.964 8.258 2.964h6.809c3.366 0 6-.858 7.844-2.562a9.6 9.6 0 0 0 2.876-6.188 1.793 1.793 0 0 0-1.786-1.987h-3.258c-5.927 0-7.528-1.813-8.062-2.41-1.3-1.466-1.863-3.767-1.863-7.48a12.739 12.739 0 0 1 2.582-8.142 9.247 9.247 0 0 1 7.507-3.257 9.072 9.072 0 0 1 6.842 2.595c1.95 2.052 2.942 5.265 2.942 9.554v9.8z" class="cls-1" data-name="Path 3" transform="translate(-689.052 -155.556)"/>
        <path id="Path_4" d="M1247.779 114.677c-2.353-2.334-5.622-3.463-10.012-3.463a12.714 12.714 0 0 0-9.848 4.234 12.94 12.94 0 0 0-3.29 8.49 17.025 17.025 0 0 0 1.22 7.285c-.5-.022-1.057-.022-1.7-.022h-4.162c-.893 0-2.746 0-2.746-1.976v-7.165a1.8 1.8 0 0 0-1.8-1.791h-8.705a1.8 1.8 0 0 0-1.8 1.791v7.165a1.556 1.556 0 0 1-1.983 1.976h-5.295c-1.961 0-2.386-.337-3.225-2.595l-6.809-18.836a1.79 1.79 0 0 0-.959-1.031 1.831 1.831 0 0 0-1.416-.022l-8.324 3.387a1.789 1.789 0 0 0-1 2.28c4.761 12.876 5.567 15.449 5.567 16.339 0 .13-.022.152-.054.174a2.553 2.553 0 0 1-1.558.3h-14a1.775 1.775 0 0 0-1.3.554 1.8 1.8 0 0 0-.5 1.314l.381 9.423a1.8 1.8 0 0 0 1.8 1.715h14.751a11.451 11.451 0 0 0 8.334-3.094 10.275 10.275 0 0 0 3.149 2.15 12.819 12.819 0 0 0 5.164.944h5.295a10.321 10.321 0 0 0 7.953-3.094c2.713 2.7 6 3.094 8.683 3.094h17.018c4.9 0 8.694-1.248 11.265-3.7 2.506-2.388 3.77-5.8 3.77-10.151v-3.767c.015-5.416-1.249-9.313-3.864-11.908zm.283 15.677c0 6.915-3.748 10.27-11.439 10.27h-17.017c-2.975 0-5.35-.565-7.2-3.344a1.8 1.8 0 0 0-2.985 0 6.75 6.75 0 0 1-6.45 3.344h-5.295c-3.214 0-5.251-1-6.831-3.344a1.8 1.8 0 0 0-3.018.054c-1.394 2.226-3.617 3.3-6.8 3.3H1168l-.24-5.841h12.126c3.835 0 5.2-2.1 5.2-4.049 0-1.379-.262-2.595-5.186-15.959l4.979-2.03 6.177 17.088c0 .011 0 .011.011.022 1.166 3.127 2.615 4.94 6.6 4.94h5.295c3.65 0 5.578-1.922 5.578-5.558v-5.374h5.11v5.374c0 3.431 2.429 5.558 6.341 5.558h4.162a13.837 13.837 0 0 1 6.2 1.021 1.789 1.789 0 0 0 1.536-3.214c-2.811-1.683-3.672-3.7-3.672-8.642a9.467 9.467 0 0 1 2.386-6.112 9.247 9.247 0 0 1 7.168-3.029c3.388 0 5.84.792 7.474 2.421 1.874 1.856 2.833 5.016 2.833 9.358v3.745z" class="cls-1" data-name="Path 4" transform="translate(-1072.457 -96.797)"/>
        <path id="Path_5" d="M1799.673 212c-3.3 0-5.273 1.911-5.273 5.113a4.8 4.8 0 0 0 1.656 4 7.179 7.179 0 0 0 4.685 1.259h1.9a1.8 1.8 0 0 0 1.8-1.791v-3.387a5.719 5.719 0 0 0-1.111-3.876 4.689 4.689 0 0 0-3.657-1.318zm1.144 6.785h-.1a3.959 3.959 0 0 1-2.408-.456c-.076-.065-.326-.271-.326-1.216a1.851 1.851 0 0 1 .316-1.194 2.1 2.1 0 0 1 1.373-.337 2.238 2.238 0 0 1 .959.119 3.377 3.377 0 0 1 .2 1.487v1.6z" class="cls-1" data-name="Path 5" transform="translate(-1634.102 -188.985)"/>
        <path id="Path_6" d="M931.368 44.588a6.638 6.638 0 0 0 4.87-2.117 6.644 6.644 0 1 0 0-9.054 6.653 6.653 0 1 0-4.87 11.171zm9.751-9.716a3.061 3.061 0 1 1-3.072 3.061 3.07 3.07 0 0 1 3.071-3.061zm-9.751 0a3.061 3.061 0 1 1-3.073 3.061 3.07 3.07 0 0 1 3.073-3.061z" class="cls-1" data-name="Path 6" transform="translate(-859.154 -27.902)"/>
        <path id="Path_7" d="M1453.968 44.588a6.644 6.644 0 1 0-6.668-6.644 6.663 6.663 0 0 0 6.668 6.644zm0-9.716a3.061 3.061 0 1 1-3.072 3.061 3.07 3.07 0 0 1 3.072-3.061z" class="cls-1" data-name="Path 7" transform="translate(-1324.818 -27.902)"/>
        <path id="Path_8" d="M1785.768 13.3a6.65 6.65 0 1 0-6.667-6.655 6.663 6.663 0 0 0 6.667 6.655zm0-9.716a3.061 3.061 0 1 1-3.072 3.061 3.07 3.07 0 0 1 3.072-3.062z" class="cls-1" data-name="Path 8" transform="translate(-1620.469)"/>
    </g>
</svg>
