<svg xmlns="http://www.w3.org/2000/svg" xmlns:xlink="http://www.w3.org/1999/xlink" viewBox="0 0 63.992 64.003">
    <defs>
        <style>
            .cls-1{fill:url(#linear-gradient)}.cls-2{fill:url(#linear-gradient-2)}
        </style>
        <linearGradient id="linear-gradient" x1="7.911" x2="-2.114" gradientUnits="objectBoundingBox">
            <stop offset="0" stop-color="#220286"/>
            <stop offset="1" stop-color="#00e3dc"/>
        </linearGradient>
        <linearGradient id="linear-gradient-2" x1="1.008" x2="0" y1=".5" y2=".5" xlink:href="#linear-gradient"/>
    </defs>
    <g id="settings" transform="translate(-.041 -.999)">
        <g id="Group_1988" data-name="Group 1988" transform="translate(.041 .999)">
            <g id="Group_1987" data-name="Group 1987">
                <path id="Path_1141" d="M110.558 277.664a3.184 3.184 0 0 0-2.275.949 3.249 3.249 0 0 0 0 4.562 3.2 3.2 0 0 0 4.548 0 3.245 3.245 0 0 0 0-4.561 3.187 3.187 0 0 0-2.273-.95zm.747 3.992a1.048 1.048 0 0 1-1.493 0 1.084 1.084 0 0 1 0-1.525 1.048 1.048 0 0 1 1.493 0 1.086 1.086 0 0 1 0 1.525z" class="cls-1" data-name="Path 1141" transform="translate(-93.936 -243.085)"/>
                <path id="Path_1142" d="M63.959 59.3a.764.764 0 0 0-.032-.081c-.011-.022-.016-.047-.028-.069l-5.2-9.357V15.941a3.2 3.2 0 0 0-3.2-3.2h-2.977a6.775 6.775 0 0 0 1.336-7.481 1.067 1.067 0 0 0-1.733-.33L49 8.048a1.11 1.11 0 0 1-1.569-.042 1.149 1.149 0 0 1-.347-.807 1.047 1.047 0 0 1 .3-.762l3.12-3.12a1.067 1.067 0 0 0-.33-1.732 6.777 6.777 0 0 0-7.532 1.379 6.661 6.661 0 0 0-1.946 5.066L36 12.741H26l-.213-.22.092-.092a2.478 2.478 0 0 0 .722-1.736 2.415 2.415 0 0 0-.712-1.751l-1.715-1.715c1.112-1.578 4.046-2.6 5.1-2.871a1.067 1.067 0 0 0 .357-1.9c-4.461-3.163-8.59-.341-10.192 1.634l-1.16 1.154-1.418-1.418a1.745 1.745 0 0 0-2.467.011l-1.927 1.93a1.757 1.757 0 0 0 0 2.479l1.42 1.42a1.791 1.791 0 0 0-.427 1.247 1.68 1.68 0 0 0 .616 1.216.411.411 0 0 1-.119.386l-.282.28a.349.349 0 0 1-.388.078l-.612-.306a1.75 1.75 0 0 0-1.824.175H8.573a3.2 3.2 0 0 0-3.2 3.2v33.851l-5.2 9.357c-.012.022-.017.047-.028.069a.753.753 0 0 0-.032.081 1.064 1.064 0 0 0-.075.368V61.8a3.2 3.2 0 0 0 3.2 3.2h57.596a3.2 3.2 0 0 0 3.2-3.2v-2.131a1.041 1.041 0 0 0-.075-.369zM42.564 9.189a1.067 1.067 0 0 0 .3-.887 4.555 4.555 0 0 1 4.8-5.159L45.885 4.93a3.17 3.17 0 0 0-.929 2.3 3.285 3.285 0 0 0 5.557 2.33L52.3 7.774a4.578 4.578 0 0 1-1.327 3.51 5.084 5.084 0 0 1-2.856 1.457h-1.15a.979.979 0 0 0-.213.044 1.01 1.01 0 0 0-.16.032 1.05 1.05 0 0 0-.368.229l-.008.005-10.554 10.492a1.013 1.013 0 0 0-.222.147 1.087 1.087 0 0 0-.143.213l-2.791 2.773a.975.975 0 0 0-.191.127 1.01 1.01 0 0 0-.125.187L21.681 37.453a1.066 1.066 0 0 0-.308.876 4.814 4.814 0 1 1-4.8-4.288 4.659 4.659 0 0 1 .543.031 1.058 1.058 0 0 0 .874-.306l10.627-10.628.021-.014a.113.113 0 0 1 .014-.02l3.084-3.086c.006 0 .014-.007.019-.013s.007-.014.013-.019zM36.8 29.781L34.616 27.6l1.619-1.609 2.177 2.177zm3.211-.189l1.473-1.472 9.843 9.842a3.347 3.347 0 0 1 0 4.733 3.428 3.428 0 0 1-4.732 0l-9.844-9.842.794-.794s.009-.015.014-.015zm-6.149-14.718L31 17.74l-2.87-2.866zm-9.052-.3l4.678 4.677-1.61 1.61-5.219-5.221 1.612-1.61.519.52zm-9.173-8.96l1.138 1.139-1.386 1.393-1.146-1.14zM11 15.552l.96-.96.39.2h.01a2.473 2.473 0 0 0 2.122 0h.006a2.446 2.446 0 0 0 .7-.486l.28-.279a2.6 2.6 0 0 0 .754-1.948 2.207 2.207 0 0 0-.471-1.272l.379-.38c.005-.005.013-.006.018-.012l.012-.017 2.868-2.871a.03.03 0 0 0 .017-.012l.012-.018 1.938-1.939c.029-.029.054-.059.081-.091.107-.136 2.194-2.7 5.076-2.24a9.048 9.048 0 0 0-3.817 2.927 1.8 1.8 0 0 0 .103 2.346l1.951 1.951a.294.294 0 0 1 .087.221.354.354 0 0 1-.107.251L20.1 15.189a2.36 2.36 0 0 0-1.393-.464h-.068a2.453 2.453 0 0 0-1.742.728l-.283.282a2.491 2.491 0 0 0-.477 2.851l.189.376-.96.96a.341.341 0 0 1-.471.02l-3.918-3.92a.3.3 0 0 1-.086-.22.366.366 0 0 1 .109-.25zm-3.494.389a1.066 1.066 0 0 1 1.066-1.066h.363a2.484 2.484 0 0 0-.183.907 2.419 2.419 0 0 0 .711 1.751l3.92 3.92a2.428 2.428 0 0 0 1.725.71 2.484 2.484 0 0 0 1.762-.732l1.139-1.139a1.774 1.774 0 0 0 .339-2.048l-.3-.6a.356.356 0 0 1 .071-.4l.282-.279a.354.354 0 0 1 .267-.107.224.224 0 0 1 .2.082 1.739 1.739 0 0 0 2.262.191l5.238 5.237-9.545 9.544a6.946 6.946 0 1 0 6.709 6.706L33.1 29.1l2.184 2.185-.806.807a1.067 1.067 0 0 0 0 1.508l2.887 2.887 7.71 7.709a5.482 5.482 0 1 0 7.756-7.749l-10.6-10.6a1.067 1.067 0 0 0-1.508 0l-.8.8-2.178-2.172 9.627-9.575a6.1 6.1 0 0 0 .811-.034H55.5a1.066 1.066 0 0 1 1.066 1.066V49H7.507zm-.438 35.2h49.938l4.148 7.459H42.3l-1.543-3.087a2.119 2.119 0 0 0-1.908-1.18H25.23a2.12 2.12 0 0 0-1.908 1.173L21.779 58.6H2.921zM39.91 58.6H24.164l1.067-2.133h13.613zm21.99 3.2a1.066 1.066 0 0 1-1.066 1.066H3.241A1.066 1.066 0 0 1 2.174 61.8v-1.064H61.9V61.8z" class="cls-2" data-name="Path 1142" transform="translate(-.041 -.999)"/>
            </g>
        </g>
    </g>
</svg>
